<svg xmlns="http://www.w3.org/2000/svg">
  
  <symbol id="play" viewBox="0 0 407 407"><defs><style>.cls-1{fill:none;stroke:#000;stroke-miterlimit:10;stroke-width:7px;}</style></defs><title>play</title><circle class="cls-1" cx="203.5" cy="203.5" r="200"/><polygon class="cls-1" points="305.01 203.5 141.83 297.71 141.83 109.29 305.01 203.5"/></symbol>
  
  <symbol id="mute" viewBox="0 0 408.99 408.99"><defs><style>.cls-1{fill:none;stroke:#000;stroke-miterlimit:10;stroke-width:7px;}</style></defs><title>mute</title><circle class="cls-1" cx="204.49" cy="204.49" r="200.99"/><rect class="cls-1" x="141.61" y="169.06" width="33.1" height="86.06"/><polyline class="cls-1" points="174.71 169.06 231.35 116.1 231.35 310.72 174.71 255.12"/><line class="cls-1" x1="124.39" y1="119.53" x2="284.59" y2="317.34"/></symbol>
  
  <symbol id="volume" viewBox="0 0 406.77 406.77"><defs><style>.cls-1{fill:#fff;}.cls-1,.cls-2{stroke:#000;stroke-miterlimit:10;stroke-width:7px;}.cls-2{fill:none;}</style></defs><title>volume</title><circle class="cls-1" cx="203.38" cy="203.38" r="199.88"/><line class="cls-2" x1="101.98" y1="271.63" x2="101.98" y2="220.11"/><line class="cls-2" x1="148.98" y1="274.46" x2="148.98" y2="147.41"/><line class="cls-2" x1="195.97" y1="274.14" x2="195.97" y2="99.55"/><line class="cls-2" x1="243.59" y1="275.39" x2="243.59" y2="149.9"/><line class="cls-2" x1="291.15" y1="276.64" x2="291.15" y2="189.34"/></symbol>
  
  <symbol id="CD" viewBox="0 0 407 407"><defs><style>.cls-1{fill:#fff;}.cls-1,.cls-2{stroke:#000;stroke-miterlimit:10;stroke-width:7px;}.cls-2{fill:none;}</style></defs><title>CD</title><circle class="cls-1" cx="203.5" cy="203.5" r="200"/><circle cx="204.95" cy="207.44" r="103.43"/><circle class="cls-2" cx="204.95" cy="207.44" r="113.96"/><circle class="cls-1" cx="204.95" cy="207.44" r="35.91"/></symbol>
  
  <symbol id="playlist" viewBox="0 0 407.41 407.41"><defs><style>.cls-1{fill:#fff;}.cls-1,.cls-2{stroke:#000;stroke-miterlimit:10;stroke-width:7px;}.cls-2{fill:none;}</style></defs><title>playlist</title><circle class="cls-1" cx="203.7" cy="203.7" r="200.2"/><line class="cls-2" x1="157.14" y1="137.05" x2="289.02" y2="137.05"/><line class="cls-2" x1="157.14" y1="180.97" x2="289.02" y2="180.97"/><line class="cls-2" x1="157.14" y1="224.89" x2="289.02" y2="224.89"/><line class="cls-2" x1="157.14" y1="268.82" x2="289.02" y2="268.82"/><circle cx="127.18" cy="138.59" r="8.79"/><circle cx="127.53" cy="224.89" r="8.79"/><circle cx="127.18" cy="180.97" r="8.79"/><circle cx="127.18" cy="268.82" r="8.79"/></symbol>

</svg>